<svg xmlns="http://www.w3.org/2000/svg" viewBox="0 0 128 128" aria-hidden="true" role="img">
  <defs>
    <!-- 渐变定义 -->
    <linearGradient id="primaryGradient" x1="0%" y1="0%" x2="100%" y2="100%">
      <stop offset="0%" stop-color="#3B82F6"/>
      <stop offset="50%" stop-color="#8B5CF6"/>
      <stop offset="100%" stop-color="#EC4899"/>
    </linearGradient>
    
    <linearGradient id="secondaryGradient" x1="0%" y1="0%" x2="100%" y2="100%">
      <stop offset="0%" stop-color="#10B981"/>
      <stop offset="100%" stop-color="#3B82F6"/>
    </linearGradient>
    
    <linearGradient id="accentGradient" x1="0%" y1="0%" x2="100%" y2="100%">
      <stop offset="0%" stop-color="#F59E0B"/>
      <stop offset="100%" stop-color="#EF4444"/>
    </linearGradient>
    
    <!-- 阴影滤镜 -->
    <filter id="shadow" x="-20%" y="-20%" width="140%" height="140%">
      <feDropShadow dx="0" dy="4" stdDeviation="8" flood-color="#000000" flood-opacity="0.15"/>
    </filter>
    
    <!-- 发光滤镜 -->
    <filter id="glow" x="-50%" y="-50%" width="200%" height="200%">
      <feGaussianBlur stdDeviation="3" result="coloredBlur"/>
      <feMerge> 
        <feMergeNode in="coloredBlur"/>
        <feMergeNode in="SourceGraphic"/>
      </feMerge>
    </filter>
  </defs>
  
  <!-- 背景圆形 -->
  <circle cx="64" cy="64" r="60" fill="url(#primaryGradient)" filter="url(#shadow)"/>
  
  <!-- 主要音符图标 -->
  <g transform="translate(32, 32)" filter="url(#glow)">
    <!-- 音符头部 -->
    <ellipse cx="32" cy="24" rx="8" ry="6" fill="white" opacity="0.95"/>
    
    <!-- 音符杆 -->
    <rect x="38" y="24" width="3" height="32" fill="white" opacity="0.9"/>
    
    <!-- 音符尾部 -->
    <path d="M 38 56 Q 42 56 42 52 Q 42 48 38 48 Q 34 48 34 52 Q 34 56 38 56 Z" fill="white" opacity="0.9"/>
  </g>
  
  <!-- AI/智能元素 - 电路板纹理 -->
  <g opacity="0.3">
    <!-- 水平线 -->
    <line x1="20" y1="40" x2="40" y2="40" stroke="white" stroke-width="1" opacity="0.6"/>
    <line x1="20" y1="50" x2="40" y2="50" stroke="white" stroke-width="1" opacity="0.6"/>
    <line x1="20" y1="60" x2="40" y2="60" stroke="white" stroke-width="1" opacity="0.6"/>
    
    <!-- 垂直线 -->
    <line x1="30" y1="30" x2="30" y2="70" stroke="white" stroke-width="1" opacity="0.6"/>
    <line x1="40" y1="30" x2="40" y2="70" stroke="white" stroke-width="1" opacity="0.6"/>
    
    <!-- 连接点 -->
    <circle cx="30" cy="40" r="2" fill="white" opacity="0.8"/>
    <circle cx="30" cy="50" r="2" fill="white" opacity="0.8"/>
    <circle cx="30" cy="60" r="2" fill="white" opacity="0.8"/>
    <circle cx="40" cy="40" r="2" fill="white" opacity="0.8"/>
    <circle cx="40" cy="50" r="2" fill="white" opacity="0.8"/>
    <circle cx="40" cy="60" r="2" fill="white" opacity="0.8"/>
  </g>
  
  <!-- 回声波纹效果 -->
  <g opacity="0.4">
    <circle cx="64" cy="64" r="70" fill="none" stroke="url(#secondaryGradient)" stroke-width="2" opacity="0.3"/>
    <circle cx="64" cy="64" r="80" fill="none" stroke="url(#secondaryGradient)" stroke-width="1.5" opacity="0.2"/>
    <circle cx="64" cy="64" r="90" fill="none" stroke="url(#secondaryGradient)" stroke-width="1" opacity="0.1"/>
  </g>
  
  <!-- 装饰性光点 -->
  <g opacity="0.7">
    <circle cx="25" cy="25" r="2" fill="url(#accentGradient)"/>
    <circle cx="103" cy="45" r="1.5" fill="url(#accentGradient)"/>
    <circle cx="85" cy="95" r="1.5" fill="url(#accentGradient)"/>
    <circle cx="45" cy="105" r="2" fill="url(#accentGradient)"/>
  </g>
  
  <!-- 中心高光 -->
  <circle cx="64" cy="64" r="25" fill="none" stroke="white" stroke-width="1" opacity="0.3"/>
  <circle cx="64" cy="64" r="15" fill="none" stroke="white" stroke-width="0.5" opacity="0.2"/>
</svg>
